<svg width="30" height="30" viewBox="0 0 30 30" fill="none" xmlns="http://www.w3.org/2000/svg">
<path d="M20.6252 8.4375H24.4652C24.6975 8.43773 24.9214 8.52416 25.0935 8.68004C25.2657 8.83592 25.3739 9.05016 25.3971 9.28125L25.969 15H24.0827L23.614 10.3125H20.6252V13.125C20.6252 13.3736 20.5264 13.6121 20.3506 13.7879C20.1748 13.9637 19.9363 14.0625 19.6877 14.0625C19.4391 14.0625 19.2006 13.9637 19.0248 13.7879C18.849 13.6121 18.7502 13.3736 18.7502 13.125V10.3125H11.2502V13.125C11.2502 13.3736 11.1514 13.6121 10.9756 13.7879C10.7998 13.9637 10.5613 14.0625 10.3127 14.0625C10.0641 14.0625 9.82561 13.9637 9.64979 13.7879C9.47398 13.6121 9.37521 13.3736 9.37521 13.125V10.3125H6.38458L4.88458 25.3125H15.0002V27.1875H3.84771C3.71676 27.1874 3.5873 27.1598 3.46766 27.1066C3.34801 27.0534 3.24085 26.9757 3.15305 26.8786C3.06526 26.7814 2.9988 26.6669 2.95794 26.5425C2.91708 26.4181 2.90274 26.2865 2.91583 26.1562L4.60333 9.28125C4.62656 9.05016 4.73473 8.83592 4.9069 8.68004C5.07906 8.52416 5.30296 8.43773 5.53521 8.4375H9.37521V7.78313C9.37521 4.53188 11.8802 1.875 15.0002 1.875C18.1202 1.875 20.6252 4.53188 20.6252 7.78313V8.43937V8.4375ZM18.7502 8.4375V7.78313C18.7502 5.54438 17.059 3.75 15.0002 3.75C12.9415 3.75 11.2502 5.54438 11.2502 7.78313V8.43937H18.7502V8.4375ZM24.6508 22.6125L22.5002 20.4637V27.1875C22.5002 27.4361 22.4014 27.6746 22.2256 27.8504C22.0498 28.0262 21.8113 28.125 21.5627 28.125C21.3141 28.125 21.0756 28.0262 20.8998 27.8504C20.724 27.6746 20.6252 27.4361 20.6252 27.1875V20.4637L18.4765 22.6125C18.39 22.702 18.2865 22.7735 18.1721 22.8226C18.0578 22.8717 17.9348 22.8976 17.8103 22.8987C17.6858 22.8998 17.5623 22.876 17.4471 22.8289C17.3319 22.7818 17.2272 22.7121 17.1392 22.6241C17.0512 22.5361 16.9816 22.4314 16.9344 22.3162C16.8873 22.201 16.8636 22.0775 16.8647 21.9531C16.8657 21.8286 16.8916 21.7056 16.9407 21.5912C16.9899 21.4768 17.0613 21.3734 17.1508 21.2869L20.9008 17.5369C21.0766 17.3611 21.3151 17.2624 21.5636 17.2624C21.8122 17.2624 22.0506 17.3611 22.2265 17.5369L25.9765 21.2869C26.066 21.3734 26.1374 21.4768 26.1866 21.5912C26.2357 21.7056 26.2615 21.8286 26.2626 21.9531C26.2637 22.0775 26.24 22.201 26.1929 22.3162C26.1457 22.4314 26.0761 22.5361 25.9881 22.6241C25.9001 22.7121 25.7954 22.7818 25.6802 22.8289C25.5649 22.876 25.4415 22.8998 25.317 22.8987C25.1925 22.8976 25.0695 22.8717 24.9551 22.8226C24.8408 22.7735 24.7373 22.702 24.6508 22.6125Z" fill="#ED1867"/>
</svg>
