<svg width="36" height="36" viewBox="0 0 36 36" fill="none" xmlns="http://www.w3.org/2000/svg">
<path d="M18.2036 20.6853C18.3095 20.7595 18.4188 20.8291 18.532 20.8954C18.6447 20.9593 18.7596 21.0205 18.8785 21.076C19.4526 21.3438 20.0929 21.4944 20.7695 21.4955C23.241 21.4938 25.2424 19.4924 25.243 17.021C25.243 15.5041 24.4888 14.1657 23.335 13.356L22.2853 14.8553C22.4115 14.9441 22.5293 15.0422 22.638 15.1509C23.1187 15.6321 23.4125 16.2878 23.4132 17.021C23.4126 17.7542 23.1188 18.4087 22.638 18.8905C22.1573 19.37 21.5016 19.6644 20.7695 19.6644C20.3681 19.6644 19.9905 19.575 19.6519 19.4176C19.5811 19.3847 19.5132 19.3491 19.4475 19.31C19.3801 19.2715 19.3155 19.2296 19.2538 19.186C19.127 19.0976 19.0093 18.9986 18.8994 18.8904C18.4199 18.4086 18.1254 17.754 18.1254 17.0209C18.1254 16.2877 18.4199 15.632 18.8994 15.1508C19.2199 14.8309 19.6185 14.5942 20.0663 14.4714V15.2601L21.8431 13.4619L20.0663 11.6631V12.6013C17.929 12.9393 16.2956 14.7885 16.2949 17.021C16.2956 18.5366 17.0498 19.8762 18.2036 20.6853Z" fill="#ED1867"/>
<path d="M35.8092 7.72445C35.6235 7.28738 35.3172 6.91824 34.9299 6.65724C34.7368 6.52646 34.5228 6.42226 34.2941 6.35089C34.0659 6.28016 33.8219 6.24219 33.5727 6.24219H11.7014C11.3929 6.24219 11.0865 6.29084 10.7977 6.39167C10.5815 6.46648 10.3742 6.57062 10.184 6.70196C9.89754 6.89729 9.64842 7.15266 9.45084 7.45269C9.26227 7.73977 9.12009 8.06645 9.02616 8.42202L6.88141 14.3143L6.87122 14.3545C6.84464 14.4615 6.80955 14.5521 6.76877 14.6342C6.70648 14.756 6.63061 14.859 6.53548 14.9564C6.43978 15.0532 6.32489 15.1438 6.19066 15.2293L1.12043 18.469C0.422367 18.9152 0 19.6863 0 20.5141V24.0296C0 24.3624 0.0679219 24.684 0.190828 24.9751C0.376523 25.4116 0.682805 25.7808 1.07016 26.0423C1.26323 26.1731 1.4767 26.2767 1.70599 26.3476C1.93416 26.4189 2.17758 26.4574 2.42733 26.4574H6.1347C6.13357 26.4852 6.13245 26.5135 6.13245 26.5412C6.13245 28.315 7.57568 29.7583 9.34959 29.7583C11.1228 29.7583 12.5655 28.315 12.5655 26.5412C12.5655 26.5134 12.5644 26.4852 12.5638 26.4574H26.7921C26.7915 26.4852 26.7904 26.5135 26.7904 26.5412C26.7904 28.315 28.2336 29.7583 30.0069 29.7583C31.7808 29.7583 33.2234 28.315 33.2234 26.5412C33.2234 26.5134 33.2229 26.4852 33.2217 26.4574H33.5727C33.9051 26.4574 34.2267 26.3895 34.5177 26.266C34.9542 26.0815 35.3235 25.7746 35.5849 25.3873C35.7157 25.1937 35.8199 24.9803 35.8907 24.7515C35.962 24.5233 36 24.2792 36 24.0296V8.66881C36 8.33595 35.9321 8.01491 35.8092 7.72445ZM30.0068 28.1327C29.1293 28.1327 28.4159 27.4193 28.4159 26.5412C28.4159 26.5134 28.417 26.4852 28.4181 26.4574H31.5956C31.5967 26.4852 31.5984 26.5135 31.5984 26.5412C31.5984 27.4193 30.8839 28.1327 30.0068 28.1327ZM9.34952 28.1327C8.47188 28.1327 7.75793 27.4193 7.75793 26.5412C7.75793 26.5134 7.75905 26.4852 7.76074 26.4574H10.9376C10.9387 26.4852 10.9399 26.5135 10.9399 26.5412C10.9399 27.4193 10.2265 28.1327 9.34952 28.1327ZM1.62548 24.0296V20.5141C1.62548 20.2406 1.76534 19.9858 1.99582 19.8387L7.06605 16.5995C7.35195 16.4166 7.64072 16.1851 7.88871 15.8787C8.01218 15.7259 8.12482 15.5544 8.21939 15.3663C8.30714 15.1937 8.37795 15.0062 8.4323 14.8075L10.5799 8.9078L10.59 8.8659C10.6376 8.67507 10.7038 8.5194 10.7797 8.39375C10.8369 8.29918 10.8986 8.22106 10.9643 8.15652C11.0633 8.0597 11.171 7.99065 11.2916 7.94192C11.4121 7.89432 11.5469 7.86767 11.7015 7.86767H33.5727C33.6855 7.86767 33.789 7.88975 33.8847 7.92997C34.0268 7.99058 34.1509 8.09302 34.238 8.22099C34.2811 8.28554 34.315 8.35571 34.3382 8.42996C34.3615 8.5047 34.3745 8.58451 34.3745 8.66888V24.0296C34.374 24.1428 34.3519 24.2458 34.3112 24.3415C34.2517 24.4842 34.1492 24.6087 34.0201 24.6954C33.9561 24.7385 33.8865 24.7724 33.8112 24.7956C33.7364 24.8189 33.6577 24.8319 33.5727 24.8319H2.42726C2.31462 24.8319 2.21098 24.8087 2.11528 24.769C1.97262 24.7091 1.84866 24.606 1.76196 24.4775C1.71837 24.4135 1.68448 24.3432 1.66177 24.2685C1.63849 24.1937 1.62612 24.1145 1.62548 24.0296Z" fill="#ED1867"/>
</svg>
